<svg width="24" height="24" viewBox="0 0 24 24" fill="none" xmlns="http://www.w3.org/2000/svg">
<path d="M18.8095 4.82244H17.786V3.67332C17.786 3.30524 17.4808 3 17.1127 3C16.7446 3 16.4394 3.30524 16.4394 3.67332V4.83142H7.91072V3.67332C7.91072 3.30524 7.60549 3 7.23741 3C6.86933 3 6.56409 3.29626 6.56409 3.67332V4.83142H5.54065C4.14015 4.83142 3 5.97157 3 7.37207V18.4594C3 19.8599 4.14015 21 5.54065 21H18.8185C20.219 21 21.3591 19.8599 21.3591 18.4594V7.36309C21.3501 5.96259 20.21 4.82244 18.8095 4.82244ZM5.54065 6.16908H6.56409V7.12968C6.56409 7.49776 6.86933 7.80299 7.23741 7.80299C7.60549 7.80299 7.91072 7.49776 7.91072 7.12968V6.16908H16.4394V7.12968C16.4394 7.49776 16.7446 7.80299 17.1127 7.80299C17.4808 7.80299 17.786 7.49776 17.786 7.12968V6.16908H18.8095C19.4648 6.16908 20.0035 6.69875 20.0035 7.36309V8.4404H4.34663V7.36309C4.34663 6.70773 4.87631 6.16908 5.54065 6.16908ZM18.8095 19.6534H5.54065C4.88529 19.6534 4.34663 19.1147 4.34663 18.4594V9.78703H20.0035V18.4594C20.0035 19.1147 19.4648 19.6534 18.8095 19.6534Z" fill="#222222"/>
</svg>
