<svg width="10.578" height="13.067" viewBox="0 0 10.578 13.067" xmlns="http://www.w3.org/2000/svg">
    <g fill="#333" fill-rule="nonzero" stroke="#F8F9F9" stroke-width=".1">
        <path d="M5.289 0C3.886 0 2.54.594 1.549 1.652.557 2.71 0 4.145 0 5.642c0 3.854 4.774 7.082 4.977 7.216l.312.209.311-.21c.204-.133 4.978-3.361 4.978-7.216 0-1.496-.557-2.93-1.55-3.989C8.038.594 6.693 0 5.29 0zm0 11.572c-1.01-.748-4.114-3.272-4.114-5.931 0-1.568.784-3.016 2.057-3.8a3.893 3.893 0 0 1 4.113 0c1.273.784 2.057 2.232 2.057 3.8 0 2.66-3.105 5.183-4.113 5.931z"/>
        <path d="M5.289 3.343c-.572 0-1.12.242-1.524.673a2.378 2.378 0 0 0-.631 1.625c0 .61.227 1.194.631 1.625.404.431.952.673 1.524.673.571 0 1.12-.242 1.523-.673.404-.43.631-1.015.631-1.625 0-.61-.227-1.194-.63-1.625a2.089 2.089 0 0 0-1.524-.673zm0 3.343a.95.95 0 0 1-.693-.306 1.08 1.08 0 0 1-.287-.739c0-.277.103-.543.287-.739a.95.95 0 0 1 .693-.306c.26 0 .508.11.692.306.184.196.287.462.287.74 0 .276-.103.542-.287.738a.95.95 0 0 1-.692.306z"/>
    </g>
</svg>
