<?xml version="1.0" encoding="UTF-8"?>
<svg width="30px" height="30px" viewBox="0 0 30 30" version="1.1" xmlns="http://www.w3.org/2000/svg" xmlns:xlink="http://www.w3.org/1999/xlink">
    <title>Services</title>
    <g id="Web" stroke="none" stroke-width="1" fill="none" fill-rule="evenodd">
        <g id="1.0---Home---Mumbai-Airports---Desktop" transform="translate(-1150.000000, -1196.000000)" fill="#555555" fill-rule="nonzero">
            <g id="Group-6" transform="translate(25.000000, 760.000000)">
                <g id="Group-75-Copy" transform="translate(1050.000000, 361.000000)">
                    <g id="Services" transform="translate(75.000000, 75.000000)">
                        <path d="M12.0880323,16.4975761 L12.2533005,16.5076131 L12.4166317,16.5381972 C13.05451,16.6942239 13.5,17.2463409 13.5,17.8996184 L13.5,17.8996184 L13.5,28.5879686 L13.4896647,28.7525322 L13.458335,28.9150009 C13.2988811,29.5500619 12.7384446,30 12.0880323,30 L12.0880323,30 L3.36941267,30 L3.14319496,29.9922703 L2.91468623,29.9684578 C1.25661455,29.73928 0,28.3236855 0,26.6301025 L0,26.6301025 L0,17.9096075 L0.0103353166,17.7450439 L0.041665003,17.5825752 C0.201118889,16.9475142 0.761555371,16.4975761 1.41196771,16.4975761 L1.41196771,16.4975761 L12.0880323,16.4975761 Z M28.5880323,16.4975761 C29.2384446,16.4975761 29.798881,16.9475142 29.958335,17.5825752 L29.9896647,17.7450439 L30,17.9096075 L30,26.6301025 C30,28.3236855 28.7433855,29.73928 27.0853139,29.9684578 L26.8568051,29.9922703 L26.6305874,30 L17.9119677,30 C17.2615554,30 16.701119,29.5500619 16.541665,28.9150009 L16.5103353,28.7525322 L16.5,28.5879686 L16.5,17.8996184 C16.5,17.2463409 16.94549,16.6942239 17.5833682,16.5381972 L17.7466995,16.5076131 L17.9119677,16.4975761 L28.5880323,16.4975761 Z M10.5,19.5015425 L3,19.5015425 L3.00231282,26.4532442 L3.0113619,26.5634189 L3.03811199,26.6624073 C3.11336499,26.8536729 3.3140097,26.9991325 3.54779007,26.9991325 L3.54779007,26.9991325 L10.5,27.0004407 L10.5,19.5015425 Z M27,19.5015425 L19.5,19.5015425 L19.5,27.0004407 L26.4522099,26.9991325 C26.6859903,26.9991325 26.886635,26.8536729 26.961888,26.6624073 L26.9886381,26.5634189 L26.9976872,26.4532442 L27,19.5015425 Z M12.0880323,0 C12.7384446,0 13.2988811,0.449938111 13.458335,1.08499905 L13.4896647,1.24746776 L13.5,1.41203144 L13.5,12.1003815 C13.5,12.753659 13.05451,13.3057761 12.4166317,13.4618028 L12.2533005,13.4923869 L12.0880323,13.5024239 L1.41196771,13.5024239 C0.761555371,13.5024239 0.201118889,13.0524858 0.041665003,12.4174248 L0.0103353166,12.2549561 L0,12.0903924 L0,3.36989743 C0,1.67631452 1.25661455,0.260720021 2.91468623,0.0315420748 L3.14319496,0.00772967265 L3.36941267,0 L12.0880323,0 Z M26.6305874,0 L26.8568051,0.00772967265 L27.0853139,0.0315420748 C28.7433855,0.260720021 30,1.67631452 30,3.36989743 L30,3.36989743 L30,12.0903924 L29.9896647,12.2549561 L29.958335,12.4174248 C29.798881,13.0524858 29.2384446,13.5024239 28.5880323,13.5024239 L28.5880323,13.5024239 L17.9119677,13.5024239 L17.7466995,13.4923869 L17.5833682,13.4618028 C16.94549,13.3057761 16.5,12.753659 16.5,12.1003815 L16.5,12.1003815 L16.5,1.41203144 L16.5103353,1.24746776 L16.541665,1.08499905 C16.701119,0.449938111 17.2615554,0 17.9119677,0 L17.9119677,0 L26.6305874,0 Z M10.5,2.99955929 L3.54779007,3.00086749 C3.3140097,3.00086749 3.11336499,3.14632716 3.03811199,3.3375926 L3.0113619,3.4365811 L3.00231282,3.54675583 L3,10.4984575 L10.5,10.4984575 L10.5,2.99955929 Z M26.4522099,3.00086749 L19.5,2.99955929 L19.5,10.4984575 L27,10.4984575 L26.9976872,3.54675583 L26.9886381,3.4365811 L26.961888,3.3375926 C26.886635,3.14632716 26.6859903,3.00086749 26.4522099,3.00086749 L26.4522099,3.00086749 Z" id="Combined-Shape"></path>
                    </g>
                </g>
            </g>
        </g>
    </g>
</svg>